<svg width="64" height="65" viewBox="0 0 64 65" fill="none" xmlns="http://www.w3.org/2000/svg">
<path d="M0.21875 65.0001V0.910156H34.4611C43.3116 0.910156 49.8426 2.49715 54.0543 5.67112C58.2659 8.78406 60.3717 12.7821 60.3717 17.6651C60.3717 20.9001 59.4561 23.7994 57.625 26.363C55.8549 28.8656 53.2608 30.8493 49.8426 32.3142C46.4245 33.7791 42.2129 34.5116 37.2078 34.5116L39.0389 29.5675C44.044 29.5675 48.3472 30.2694 51.9485 31.6733C55.6107 33.0772 58.4185 35.122 60.3717 37.8076C62.386 40.4323 63.3931 43.6062 63.3931 47.3296C63.3931 52.884 61.0736 57.2177 56.4347 60.3307C51.8569 63.4436 45.1427 65.0001 36.2922 65.0001H0.21875ZM21.46 49.8932H34.4611C36.8416 49.8932 38.6117 49.4659 39.7714 48.6114C40.9921 47.7568 41.6025 46.5055 41.6025 44.8575C41.6025 43.2095 40.9921 41.9582 39.7714 41.1037C38.6117 40.2492 36.8416 39.8219 34.4611 39.8219H19.9951V25.539H31.5312C33.9728 25.539 35.7429 25.1422 36.8416 24.3487C38.0013 23.4942 38.5811 22.304 38.5811 20.778C38.5811 19.191 38.0013 18.0008 36.8416 17.2073C35.7429 16.4138 33.9728 16.0171 31.5312 16.0171H21.46V49.8932Z" fill="#EE8A1F"/>
</svg>
