<svg width="66" height="68" viewBox="0 0 66 68" fill="none" xmlns="http://www.w3.org/2000/svg">
<path d="M36.3625 67.465C31.2353 67.465 26.4743 66.6715 22.0796 65.0846C17.7459 63.4365 13.9616 61.1171 10.7265 58.1262C7.55257 55.1354 5.08053 51.5952 3.31043 47.5056C1.54032 43.4161 0.655273 38.8993 0.655273 33.9552C0.655273 29.0111 1.54032 24.4943 3.31043 20.4047C5.08053 16.3152 7.55257 12.775 10.7265 9.78413C13.9616 6.79326 17.7459 4.50434 22.0796 2.91735C26.4743 1.26933 31.2353 0.445312 36.3625 0.445312C42.6494 0.445312 48.2039 1.544 53.0259 3.74137C57.9089 5.93873 61.9374 9.11271 65.1114 13.2633L51.4694 25.4404C49.5772 23.0599 47.4714 21.2288 45.152 19.947C42.8936 18.6041 40.33 17.9327 37.4612 17.9327C35.2028 17.9327 33.158 18.2989 31.3269 19.0314C29.4957 19.7638 27.9087 20.832 26.5659 22.2359C25.2841 23.6398 24.277 25.3488 23.5445 27.3631C22.8121 29.3163 22.4458 31.5137 22.4458 33.9552C22.4458 36.3967 22.8121 38.6246 23.5445 40.6388C24.277 42.5921 25.2841 44.2706 26.5659 45.6745C27.9087 47.0783 29.4957 48.1465 31.3269 48.879C33.158 49.6114 35.2028 49.9776 37.4612 49.9776C40.33 49.9776 42.8936 49.3368 45.152 48.055C47.4714 46.7121 49.5772 44.8505 51.4694 42.47L65.1114 54.6471C61.9374 58.7366 57.9089 61.9106 53.0259 64.169C48.2039 66.3664 42.6494 67.465 36.3625 67.465Z" fill="#FF633D"/>
</svg>
