<svg width="68" height="65" viewBox="0 0 68 65" fill="none" xmlns="http://www.w3.org/2000/svg">
<path d="M0.21875 65.0001V0.910156H31.8059C38.9474 0.910156 45.2343 2.22247 50.6667 4.84711C56.099 7.41071 60.3412 11.073 63.3931 15.834C66.445 20.5949 67.9709 26.2714 67.9709 32.8636C67.9709 39.5167 66.445 45.2543 63.3931 50.0763C60.3412 54.8372 56.099 58.53 50.6667 61.1547C45.2343 63.7183 38.9474 65.0001 31.8059 65.0001H0.21875ZM21.8262 48.1536H30.8903C33.9422 48.1536 36.5974 47.5737 38.8558 46.414C41.1752 45.2543 42.9759 43.5452 44.2577 41.2868C45.5395 38.9674 46.1804 36.1596 46.1804 32.8636C46.1804 29.6285 45.5395 26.8818 44.2577 24.6234C42.9759 22.365 41.1752 20.656 38.8558 19.4962C36.5974 18.3365 33.9422 17.7566 30.8903 17.7566H21.8262V48.1536Z" fill="#EDE6FE"/>
</svg>
