<svg width="58" height="68" viewBox="0 0 58 68" fill="none" xmlns="http://www.w3.org/2000/svg">
<path d="M28.1153 67.465C22.744 67.465 17.5557 66.8547 12.5506 65.6339C7.54551 64.4131 3.42544 62.8261 0.19043 60.8729L7.14876 45.1251C10.2007 46.8952 13.5883 48.3296 17.3116 49.4283C21.0959 50.466 24.7582 50.9848 28.2984 50.9848C30.3737 50.9848 31.9912 50.8627 33.151 50.6185C34.3717 50.3134 35.2568 49.9166 35.8061 49.4283C36.3554 48.879 36.6301 48.2381 36.6301 47.5056C36.6301 46.3459 35.9892 45.4303 34.7074 44.7589C33.4256 44.0875 31.7166 43.5381 29.5802 43.1109C27.5049 42.6226 25.216 42.1343 22.7135 41.646C20.2109 41.0966 17.6778 40.3947 15.1142 39.5402C12.6117 38.6856 10.2922 37.5564 8.15589 36.1525C6.0806 34.7487 4.40205 32.9175 3.12025 30.6591C1.83846 28.3397 1.19756 25.4709 1.19756 22.0528C1.19756 18.0853 2.29624 14.4841 4.49361 11.249C6.75201 7.95299 10.0786 5.32835 14.4733 3.37514C18.9291 1.42192 24.453 0.445312 31.0451 0.445312C35.3788 0.445312 39.6515 0.903097 43.8631 1.81867C48.0747 2.73424 51.8591 4.13811 55.2162 6.03029L48.7156 21.6865C45.5417 20.0995 42.4592 18.9093 39.4684 18.1158C36.5386 17.3223 33.6698 16.9256 30.862 16.9256C28.7867 16.9256 27.1387 17.1087 25.9179 17.4749C24.6972 17.8411 23.8121 18.3294 23.2628 18.9398C22.7745 19.5502 22.5303 20.2216 22.5303 20.9541C22.5303 22.0528 23.1712 22.9378 24.453 23.6092C25.7348 24.2196 27.4134 24.7384 29.4887 25.1657C31.625 25.593 33.9444 26.0508 36.447 26.5391C39.0106 27.0274 41.5437 27.6988 44.0462 28.5533C46.5488 29.4078 48.8377 30.537 50.913 31.9409C53.0493 33.3448 54.7584 35.1759 56.0402 37.4343C57.322 39.6927 57.9629 42.5005 57.9629 45.8576C57.9629 49.764 56.8337 53.3653 54.5753 56.6613C52.3779 59.8963 49.0819 62.521 44.6871 64.5352C40.2924 66.4884 34.7685 67.465 28.1153 67.465Z" fill="#2BDBA3"/>
</svg>
